<?xml version="1.0" encoding="UTF-8" standalone="no"?>
<!-- Created with Inkscape (http://www.inkscape.org/) -->

<svg
   width="1000"
   height="1000"
   viewBox="0 0 264.58332 264.58334"
   version="1.1"
   id="svg5"
   xmlns="http://www.w3.org/2000/svg"
   xmlns:svg="http://www.w3.org/2000/svg"
   xmlns:rdf="http://www.w3.org/1999/02/22-rdf-syntax-ns#"
   xmlns:cc="http://creativecommons.org/ns#"
   xmlns:dc="http://purl.org/dc/elements/1.1/">
  <defs
     id="defs2" />
  <metadata
     id="metadata856">
    <rdf:RDF>
      <cc:Work
         rdf:about="">
        <dc:creator>
          <cc:Agent>
            <dc:title>Inspire Studio</dc:title>
          </cc:Agent>
        </dc:creator>
        <cc:license
           rdf:resource="http://creativecommons.org/publicdomain/zero/1.0/" />
        <dc:description>Thank you for using this artwork. Feel free to visit our page https://www.pinterest.com.au/inspirestudiobox for more designs. We wish you have a wonderful day, everyday. Amitabha</dc:description>
      </cc:Work>
      <cc:License
         rdf:about="http://creativecommons.org/publicdomain/zero/1.0/">
        <cc:permits
           rdf:resource="http://creativecommons.org/ns#Reproduction" />
        <cc:permits
           rdf:resource="http://creativecommons.org/ns#Distribution" />
        <cc:permits
           rdf:resource="http://creativecommons.org/ns#DerivativeWorks" />
      </cc:License>
    </rdf:RDF>
  </metadata>
  <rect
     style="fill:#f7f7f7;fill-opacity:1;stroke:none;stroke-width:10.5833;stroke-linecap:square;stroke-miterlimit:4;stroke-dasharray:none;stroke-opacity:1;paint-order:stroke markers fill"
     id="rect882"
     width="264.58334"
     height="264.58334"
     x="-1.350586e-05"
     y="0" />
  <g
     id="g889"
     transform="translate(264.49278,-72.51685)">
    <path
       id="path2272"
       style="fill:none;fill-opacity:1;stroke:#0573e1;stroke-width:6.61458;stroke-linecap:butt;stroke-linejoin:miter;stroke-miterlimit:4;stroke-dasharray:none;stroke-opacity:1"
       d="m -159.59581,263.8999 a 64.16146,64.16146 0 0 0 0.0951,0.0377 64.16146,64.16146 0 0 0 3.54242,1.17409 64.16146,64.16146 0 0 0 3.60546,0.96583 64.16146,64.16146 0 0 0 3.65508,0.75499 64.16146,64.16146 0 0 0 3.6928,0.54054 64.16146,64.16146 0 0 0 3.71811,0.32556 64.16146,64.16146 0 0 0 3.73053,0.10852 64.16146,64.16146 0 0 0 3.73052,-0.10852 64.16146,64.16146 0 0 0 3.71811,-0.32556 64.16146,64.16146 0 0 0 3.69281,-0.54054 64.16146,64.16146 0 0 0 3.65507,-0.75499 64.16146,64.16146 0 0 0 3.60495,-0.96583 64.16146,64.16146 0 0 0 3.54293,-1.17409 64.16146,64.16146 0 0 0 3.46852,-1.3777 64.16146,64.16146 0 0 0 3.38274,-1.57768 64.16146,64.16146 0 0 0 3.28507,-1.77095 64.16146,64.16146 0 0 0 3.17655,-1.95957 64.16146,64.16146 0 0 0 3.057183,-2.14044 64.16146,64.16146 0 0 0 2.927469,-2.3151 64.16146,64.16146 0 0 0 2.788459,-2.48099 64.16146,64.16146 0 0 0 2.639116,-2.63911 64.16146,64.16146 0 0 0 2.480984,-2.78846 64.16146,64.16146 0 0 0 2.315105,-2.92747 64.16146,64.16146 0 0 0 0.920874,-1.31517 c -1.964084,-1.07793 -5.045483,-0.63016 -6.826456,-1.24747 -2.330098,-0.80764 -4.38997,-1.62094 -5.7335,-2.06395 -1.34353,-0.443 -1.64814,-0.21855 -2.293404,-0.68833 -2.17713,-1.58508 -2.46413,-4.99346 -4.5868,-6.65076 -1.54445,-1.20584 -3.70796,-1.28072 -5.50405,-2.06396 -2.82048,-1.22995 -5.33885,-3.15062 -8.25635,-4.12843 -1.99041,-0.66709 -4.10486,-0.92531 -6.19238,-1.1467 -0.93159,-0.0988 -1.88585,-0.0194 -2.83549,0.0419 -12.22578,3.37335 -7.88274,8.50986 -12.98887,10.96677 -4.22398,2.03245 -10.66596,-0.75593 -13.79399,2.73524 -5.58812,6.23685 -7.08374,19.56189 -5.41466,27.50064 z" />
    <path
       id="path944"
       style="fill:none;fill-opacity:1;stroke:#0573e1;stroke-width:6.61458;stroke-linecap:butt;stroke-linejoin:miter;stroke-miterlimit:4;stroke-dasharray:none;stroke-opacity:1"
       d="m -139.82854,139.63307 c -1.79802,0.0422 -3.59346,0.15993 -5.38158,0.35295 -0.37226,0.0386 -0.74418,0.0805 -1.1157,0.12557 -2.41149,0.33832 -4.80178,0.81366 -7.15925,1.42369 -0.44499,0.11409 -0.88874,0.23295 -1.33118,0.35657 -2.34693,0.65055 -4.65492,1.4342 -6.91276,2.34714 -0.34461,0.14668 -0.68792,0.29638 -1.02991,0.44907 -2.35829,0.99252 -4.65511,2.12523 -6.87813,3.39204 -2.20925,1.29227 -4.3392,2.71557 -6.37843,4.26227 -0.30251,0.21907 -0.6031,0.44077 -0.90175,0.66508 -1.91919,1.49877 -3.7515,3.10557 -5.48804,4.81262 -0.32905,0.32205 -0.65463,0.64764 -0.97668,0.97669 l -0.01,0.0114 c -0.009,0.52655 -0.041,1.0209 -0.1111,1.46709 -0.94724,6.02678 -2.56491,6.29375 -1.83503,9.40253 1.25488,5.34489 9.38048,7.61967 10.01954,13.07258 0.32168,2.74478 -3.48909,4.80641 -3.38532,7.56802 0.11422,3.03967 1.38861,7.29403 4.34082,8.0269 4.67863,1.16143 8.71599,-4.52584 12.02976,-8.0269 2.29503,-2.42475 3.55038,-5.66351 5.09323,-8.62428 1.49034,-2.86002 2.32102,-6.05749 4.00957,-8.80515 0.76889,-1.25116 1.72208,-2.39355 2.75229,-3.4401 1.59993,-1.62531 3.60812,-2.80089 5.27461,-4.35787 1.46203,-1.36597 2.53755,-3.1439 4.12843,-4.35736 3.99735,-3.04901 12.69952,-2.11837 13.30151,-7.10964 0.35653,-2.95607 -4.3982,-4.01577 -6.65075,-5.96295 -0.90343,-0.78095 -1.92975,-1.42765 -2.75229,-2.2934 -0.78976,-0.83124 -1.29984,-0.75382 -2.06396,-2.75177 -0.31629,-0.79529 -0.35697,-1.82584 -0.58807,-2.98276 z" />
    <path
       id="path1652"
       style="fill:none;stroke:#4d4d4d;stroke-width:7.9375;stroke-linecap:round;stroke-miterlimit:4;stroke-dasharray:none;paint-order:fill markers stroke"
       d="m -75.209422,218.79678 a 64.16146,64.16146 0 0 1 -62.346908,49.01037 64.16146,64.16146 0 0 1 -64.16146,-64.16146 64.16146,64.16146 0 0 1 64.16146,-64.16146 64.16146,64.16146 0 0 1 17.13362,2.32998" />
    <path
       id="path7599"
       style="fill:none;stroke:#4d4d4d;stroke-width:6.61458;stroke-linecap:round;stroke-miterlimit:4;stroke-dasharray:none;stroke-opacity:1;paint-order:fill markers stroke"
       d="m -123.23496,197.04695 v 0 c 0,0 -16.37682,14.07079 -43.02579,19.97648 -26.64897,5.90568 -50.11836,2.27242 -52.42034,-8.11512 -1.40985,-6.36181 5.52637,-14.12083 18.43576,-20.62271" />
    <path
       id="path18641"
       style="fill:none;stroke:#4d4d4d;stroke-width:5.29167;stroke-linecap:round;stroke-miterlimit:4;stroke-dasharray:none;paint-order:fill markers stroke"
       d="m -46.82389,150.10329 -9.99102,0.29929 c -0.3551,0.0106 -0.70149,0.11232 -1.006,0.29528 l -12.98646,7.80306 c -0.28308,0.17009 -0.64347,0.1659 -0.91206,-0.0263 l -27.69321,-19.80796 c -0.32298,-0.23101 -0.6432,-0.44975 -0.98359,-0.24523 l -7.30469,4.38912 c -0.34039,0.20452 -0.50798,0.68583 -0.24524,0.98357 l 21.3925,23.54641 c 0.18652,0.21138 0.13571,0.54014 -0.10599,0.68531 l -17.94947,10.78515 c -0.28191,0.16937 -0.63119,0.14584 -0.90487,-0.0366 l -12.9107,-8.60271 c 0,0 -0.64319,-0.44977 -0.98358,-0.24525 l -6.9687,4.18723 c -0.34038,0.20452 -0.534,0.71099 -0.24524,0.98358 l 15.06414,14.22102 c 0.25771,0.24328 0.44362,0.55268 0.53743,0.89443 l 5.48422,19.97722 c 0.10226,0.3837 0.64318,0.44976 0.98358,0.24523 l 6.96871,-4.18722 c 0.34037,-0.20452 0.24522,-0.98358 0.24522,-0.98358 l -1.53454,-15.4382 c -0.0435,-0.326 0.11074,-0.64673 0.39258,-0.81612 l 17.94947,-10.78513 c 0.24165,-0.14519 0.55578,-0.0357 0.65484,0.2282 l 10.74707,29.94284 c 0.13953,0.37179 0.64319,0.44975 0.98357,0.24524 l 7.30472,-4.38912 c 0.34037,-0.20452 -0.0952,-0.77905 0.24522,-0.98359 l -4.4882,-33.75082 c -0.0436,-0.32736 0.12198,-0.64754 0.40503,-0.81763 l 12.98646,-7.80306 c 0.30451,-0.18296 0.55691,-0.44109 0.73301,-0.74962 l 4.95476,-8.68105 c 0.35288,-0.61828 -0.10741,-1.38435 -0.819,-1.36304 z" />
  </g>
</svg>
